<svg width="17" height="17" viewBox="0 0 17 17" fill="none" xmlns="http://www.w3.org/2000/svg">
<path d="M4.24979 3.54175H2.83301V4.95853H4.24979V3.54175Z" fill="black"/>
<path d="M4.24979 4.95825H2.83301V6.37503H4.24979V4.95825Z" fill="black"/>
<path d="M4.24979 6.375H2.83301V7.79178H4.24979V6.375Z" fill="black"/>
<path d="M4.24979 7.79175H2.83301V9.20853H4.24979V7.79175Z" fill="black"/>
<path d="M5.66678 4.95825H4.25V6.37503H5.66678V4.95825Z" fill="black"/>
<path d="M5.66678 6.375H4.25V7.79178H5.66678V6.375Z" fill="black"/>
<path d="M5.66678 7.79175H4.25V9.20853H5.66678V7.79175Z" fill="black"/>
<path d="M5.66678 9.20825H4.25V10.625H5.66678V9.20825Z" fill="black"/>
<path d="M8.49979 3.54175H7.08301V4.95853H8.49979V3.54175Z" fill="black"/>
<path d="M5.66678 3.54175H4.25V4.95853H5.66678V3.54175Z" fill="black"/>
<path d="M7.08377 3.54175H5.66699V4.95853H7.08377V3.54175Z" fill="black"/>
<path d="M7.08377 4.95825H5.66699V6.37503H7.08377V4.95825Z" fill="black"/>
<path d="M7.08377 6.375H5.66699V7.79178H7.08377V6.375Z" fill="black"/>
<path d="M7.08377 7.79175H5.66699V9.20853H7.08377V7.79175Z" fill="black"/>
<path d="M7.08377 9.20825H5.66699V10.625H7.08377V9.20825Z" fill="black"/>
<path d="M7.08377 10.625H5.66699V12.0418H7.08377V10.625Z" fill="black"/>
<path d="M9.91678 3.54175H8.5V4.95853H9.91678V3.54175Z" fill="black"/>
<path d="M11.3338 3.54175H9.91699V4.95853H11.3338V3.54175Z" fill="black"/>
<path d="M12.7498 3.54175H11.333V4.95853H12.7498V3.54175Z" fill="black"/>
<path d="M11.3338 6.375H9.91699V7.79178H11.3338V6.375Z" fill="black"/>
<path d="M11.3338 7.79175H9.91699V9.20853H11.3338V7.79175Z" fill="black"/>
<path d="M12.7498 7.79175H11.333V9.20853H12.7498V7.79175Z" fill="black"/>
<path d="M14.1668 4.95825H12.75V6.37503H14.1668V4.95825Z" fill="black"/>
<path d="M14.1668 7.79175H12.75V9.20853H14.1668V7.79175Z" fill="black"/>
<path d="M11.3338 9.20825H9.91699V10.625H11.3338V9.20825Z" fill="black"/>
<path d="M11.3338 10.625H9.91699V12.0418H11.3338V10.625Z" fill="black"/>
<path d="M12.7498 9.20825H11.333V10.625H12.7498V9.20825Z" fill="black"/>
<path d="M2.83343 6.37503V4.95825H1.41699V6.37503V7.79181V9.20825H2.83343V7.79181V6.37503Z" fill="black"/>
<path d="M4.24979 9.20825H2.83301V10.625H4.24979V9.20825Z" fill="black"/>
<path d="M5.66678 10.625H4.25V12.0418H5.66678V10.625Z" fill="black"/>
<path d="M7.08377 12.0417H5.66699V13.4585H7.08377V12.0417Z" fill="black"/>
<path d="M8.49979 12.0417H7.08301V13.4585H8.49979V12.0417Z" fill="black"/>
<path d="M8.49979 10.625H7.08301V12.0418H8.49979V10.625Z" fill="black"/>
<path d="M8.49979 9.20825H7.08301V10.625H8.49979V9.20825Z" fill="black"/>
<path d="M8.49979 7.79175H7.08301V9.20853H8.49979V7.79175Z" fill="black"/>
<path d="M8.49979 6.375H7.08301V7.79178H8.49979V6.375Z" fill="black"/>
<path d="M8.49979 4.95825H7.08301V6.37503H8.49979V4.95825Z" fill="black"/>
<path d="M9.91678 12.0417H8.5V13.4585H9.91678V12.0417Z" fill="black"/>
<path d="M9.91678 10.625H8.5V12.0418H9.91678V10.625Z" fill="black"/>
<path d="M9.91678 9.20825H8.5V10.625H9.91678V9.20825Z" fill="black"/>
<path d="M9.91678 7.79175H8.5V9.20853H9.91678V7.79175Z" fill="black"/>
<path d="M9.91678 6.375H8.5V7.79178H9.91678V6.375Z" fill="black"/>
<path d="M9.91678 4.95825H8.5V6.37503H9.91678V4.95825Z" fill="black"/>
<path d="M7.08301 13.4583V14.875H8.49979H9.91657V13.4583H8.49979H7.08301Z" fill="black"/>
<path d="M7.08322 3.54178V2.125H5.66678H4.25V3.54178H5.66678H7.08322Z" fill="black"/>
<path d="M12.7502 3.54178V2.125H11.3334H9.91699V3.54178H11.3334H12.7502Z" fill="black"/>
<path d="M14.1668 3.54175H12.75V4.95853H14.1668V3.54175Z" fill="black"/>
<path d="M14.167 4.95825V6.37503V7.79181V9.20825H15.5834V7.79181V6.37503V4.95825H14.167Z" fill="black"/>
<path d="M14.1668 9.20825H12.75V10.625H14.1668V9.20825Z" fill="black"/>
<path d="M12.7498 10.625H11.333V12.0418H12.7498V10.625Z" fill="black"/>
<path d="M11.3338 12.0417H9.91699V13.4585H11.3338V12.0417Z" fill="black"/>
</svg>
